<?xml version="1.0" encoding="UTF-8"?>
<svg xmlns="http://www.w3.org/2000/svg" xmlns:xlink="http://www.w3.org/1999/xlink" width="0" height="0">
<defs>

<symbol id="profile" width="100%" height="100%" viewBox="0 0 45.532 45.532" fill="#9ea3a0">
  <path d="M22.766,0.001C10.194,0.001,0,10.193,0,22.766s10.193,22.765,22.766,22.765c12.574,0,22.766-10.192,22.766-22.765 S35.34,0.001,22.766,0.001z M22.766,6.808c4.16,0,7.531,3.372,7.531,7.53c0,4.159-3.371,7.53-7.531,7.53 c-4.158,0-7.529-3.371-7.529-7.53C15.237,10.18,18.608,6.808,22.766,6.808z M22.761,39.579c-4.149,0-7.949-1.511-10.88-4.012 c-0.714-0.609-1.126-1.502-1.126-2.439c0-4.217,3.413-7.592,7.631-7.592h8.762c4.219,0,7.619,3.375,7.619,7.592 c0,0.938-0.41,1.829-1.125,2.438C30.712,38.068,26.911,39.579,22.761,39.579z"/>
</symbol>

<symbol id="storage" width="24" height="24" viewBox="0 0 150.817 150.817" fill="var(--dashboard-nav-icon-color)">
<path d="M58.263,64.946c3.58-8.537,9.834-16.039,18.456-21.02c6.644-3.842,14.225-5.876,21.902-5.876
		c6.376,0,12.568,1.461,18.207,4.031V21.677C116.829,9.706,92.563,0,62.641,0C32.71,0,8.448,9.706,8.448,21.677v21.681
		C8.436,54.75,30.372,64.061,58.263,64.946z M62.629,5.416c29.77,0,48.768,9.633,48.768,16.255c0,6.634-18.998,16.258-48.768,16.258
		c-29.776,0-48.774-9.624-48.774-16.258C13.855,15.049,32.853,5.416,62.629,5.416z M8.429,75.883V54.202
		c0,10.973,20.396,20.015,46.841,21.449c-1.053,7.21-0.311,14.699,2.375,21.799C30.055,96.445,8.436,87.184,8.429,75.883z
		 M95.425,125.631c-9.109,2.771-20.457,4.445-32.796,4.445c-29.931,0-54.193-9.706-54.193-21.684V86.709
		c0,11.983,24.256,21.684,54.193,21.684c0.341,0,0.673-0.018,1.014-0.018C71.214,118.373,82.827,124.656,95.425,125.631z
		 M131.296,63.11c-10.388-17.987-33.466-24.174-51.46-13.785c-17.987,10.388-24.173,33.463-13.792,51.45
		c10.388,17.993,33.478,24.174,51.465,13.798C135.51,104.191,141.684,81.102,131.296,63.11z M71.449,97.657
		C62.778,82.66,67.945,63.394,82.955,54.72c15.01-8.662,34.275-3.504,42.946,11.509c8.672,15.013,3.502,34.279-11.508,42.943
		C99.377,117.85,80.117,112.686,71.449,97.657z M139.456,133.852l-16.203,9.353l-12.477-21.598l16.209-9.359L139.456,133.852z
		 M137.708,149.562c-4.488,2.582-10.199,1.06-12.794-3.429l16.216-9.353C143.718,141.268,142.184,146.979,137.708,149.562z"/>
</symbol>

<symbol id="statistics" width="24" height="24" viewBox="0 0 24 24" fill="var(--dashboard-nav-icon-color)">
<path d="M11.3986 20.9792C10.1031 20.9792 8.87872 20.7303 7.72542 20.2327C6.57212 19.735 5.56496 19.0596 4.70394 18.2065C3.84291 17.3534 3.16357 16.3502 2.66592 15.1969C2.16826 14.0436 1.91943 12.8192 1.91943 11.5237C1.91943 9.02753 2.76071 6.87891 4.44326 5.07787C6.12581 3.27683 8.21518 2.28152 10.7114 2.09194V4.50912C8.89452 4.68291 7.37785 5.43729 6.16136 6.77227C4.94487 8.10726 4.33662 9.69107 4.33662 11.5237C4.33662 13.4827 5.02386 15.1455 6.39834 16.5121C7.77282 17.8787 9.43957 18.562 11.3986 18.562C12.5361 18.562 13.6104 18.3053 14.6215 17.7918C15.6326 17.2784 16.4937 16.5556 17.2046 15.6234L19.29 16.832C18.3737 18.1433 17.2243 19.1623 15.842 19.8891C14.4596 20.6158 12.9785 20.9792 11.3986 20.9792ZM19.9772 15.5524L17.8918 14.3912C18.0814 13.9014 18.2236 13.4156 18.3184 12.9337C18.4132 12.4519 18.4606 11.974 18.4606 11.5C18.4606 9.66737 17.8563 8.07961 16.6477 6.73673C15.4391 5.39385 13.9343 4.64341 12.1332 4.48542V2.06824C14.6136 2.24202 16.6911 3.22549 18.3658 5.01863C20.0404 6.81177 20.8778 8.94063 20.8778 11.4052C20.8778 12.1162 20.8027 12.8152 20.6526 13.5025C20.5026 14.1897 20.2774 14.873 19.9772 15.5524Z" />
</symbol>

<symbol id="settings" width="24" height="24" viewBox="0 0 24 24" fill="var(--dashboard-nav-icon-color)">
<path d="M9.19483 20.9792L8.72087 17.9933C8.4207 17.8827 8.10473 17.7326 7.77296 17.543C7.44119 17.3534 7.14891 17.1559 6.89613 16.9506L4.09978 18.2302L1.89587 14.3438L4.45525 12.4717C4.42365 12.3295 4.4039 12.1675 4.396 11.9858C4.38811 11.8042 4.38416 11.6422 4.38416 11.5C4.38416 11.3579 4.38811 11.1959 4.396 11.0142C4.4039 10.8326 4.42365 10.6706 4.45525 10.5284L1.89587 8.65629L4.09978 4.76983L6.89613 6.04952C7.14891 5.84414 7.44119 5.64666 7.77296 5.45707C8.10473 5.26749 8.4207 5.1253 8.72087 5.03051L9.19483 2.02087H13.5553L14.0292 5.00681C14.3294 5.1174 14.6493 5.26354 14.989 5.44522C15.3286 5.62691 15.617 5.82834 15.8539 6.04952L18.6503 4.76983L20.8542 8.65629L18.2948 10.481C18.3264 10.639 18.3462 10.8089 18.3541 10.9905C18.362 11.1722 18.3659 11.3421 18.3659 11.5C18.3659 11.658 18.362 11.8239 18.3541 11.9977C18.3462 12.1715 18.3264 12.3374 18.2948 12.4954L20.8542 14.3438L18.6503 18.2302L15.8539 16.9506C15.6012 17.1559 15.3128 17.3574 14.989 17.5549C14.6651 17.7523 14.3452 17.8985 14.0292 17.9933L13.5553 20.9792H9.19483ZM11.375 14.5808C12.2282 14.5808 12.9549 14.2806 13.5553 13.6803C14.1556 13.0799 14.4558 12.3532 14.4558 11.5C14.4558 10.6469 14.1556 9.92018 13.5553 9.31983C12.9549 8.71949 12.2282 8.41931 11.375 8.41931C10.5219 8.41931 9.79518 8.71949 9.19483 9.31983C8.59449 9.92018 8.29431 10.6469 8.29431 11.5C8.29431 12.3532 8.59449 13.0799 9.19483 13.6803C9.79518 14.2806 10.5219 14.5808 11.375 14.5808Z" />
</symbol>

<symbol id="logout"  width="24" height="24" viewBox="0 0 91.839 122.88"  fill="var(--dashboard-nav-icon-color)">
<path d="M81.75,64.617H41.365c-1.738,0-3.147-1.423-3.147-3.178c0-1.756,1.409-3.179,3.147-3.179h40.383L68.559,43.155 c-1.146-1.31-1.025-3.311,0.271-4.469c1.297-1.159,3.278-1.037,4.425,0.273l17.798,20.383c1.065,1.216,1.037,3.029-0.011,4.21 L73.254,83.92c-1.146,1.311-3.128,1.433-4.425,0.273c-1.296-1.158-1.417-3.16-0.271-4.47L81.75,64.617L81.75,64.617z M70.841,99.629c0-1.756,1.423-3.179,3.178-3.179c1.756,0,3.179,1.423,3.179,3.179v14.242c0,2.475-1.017,4.729-2.648,6.36 c-1.633,1.632-3.887,2.648-6.36,2.648H9.009c-2.475,0-4.73-1.014-6.363-2.646C1.016,118.603,0,116.352,0,113.871V9.009 c0-2.48,1.013-4.733,2.644-6.365C4.275,1.013,6.528,0,9.009,0h59.18c2.479,0,4.731,1.016,6.362,2.646 c1.633,1.633,2.646,3.889,2.646,6.363V23.25c0,1.755-1.423,3.178-3.179,3.178c-1.755,0-3.178-1.423-3.178-3.178V9.009 c0-0.722-0.301-1.385-0.785-1.869c-0.482-0.482-1.144-0.783-1.867-0.783H9.009c-0.726,0-1.389,0.3-1.87,0.782 C6.656,7.62,6.357,8.283,6.357,9.009v104.862c0,0.724,0.301,1.385,0.783,1.867c0.484,0.484,1.147,0.785,1.869,0.785h59.18 c0.72,0,1.381-0.302,1.865-0.786c0.485-0.484,0.787-1.146,0.787-1.866V99.629L70.841,99.629z"/>
</symbol>


<symbol id="cloud" width="100%" height="100%" viewBox="0 0 36 36" fill="white">
  <path d="M9.4125 30.0001C7.2125 30.0001 5.34375 29.2313 3.80625 27.6938C2.26875 26.1563 1.5 24.2876 1.5 22.0876C1.5 20.1376 2.125 18.4251 3.375 16.9501C4.625 15.4751 6.2125 14.5876 8.1375 14.2876C8.6375 11.8626 9.8125 9.88135 11.6625 8.34385C13.5125 6.80635 15.65 6.0376 18.075 6.0376C20.875 6.0376 23.2375 7.05635 25.1625 9.09385C27.0875 11.1313 28.05 13.5751 28.05 16.4251V17.3251C29.85 17.2751 31.375 17.8563 32.625 19.0688C33.875 20.2813 34.5 21.8126 34.5 23.6626C34.5 25.3876 33.875 26.8751 32.625 28.1251C31.375 29.3751 29.8875 30.0001 28.1625 30.0001H9.4125Z" />
</symbol>

<symbol id="search" width="17" height="16" viewBox="0 0 17 16" fill="#757575" stroke="#757575" stroke-width="0.3" >
  <path d="M14.5436 13.6297C14.3483 13.825 14.0317 13.825 13.8365 13.6297L10.1359 9.92914C9.95039 9.74365 9.65483 9.7365 9.43548 9.88036C9.19387 10.0388 8.92894 10.1703 8.64069 10.2749C8.1967 10.4361 7.72425 10.5166 7.22334 10.5166C6.02154 10.5166 5.00442 10.0999 4.17199 9.26661C3.33956 8.43328 2.92334 7.42772 2.92334 6.24994C2.92334 5.07217 3.34001 4.06661 4.17334 3.23328C5.00667 2.39994 6.01501 1.98328 7.19834 1.98328C8.38167 1.98328 9.38723 2.39994 10.215 3.23328C11.0428 4.06661 11.4567 5.073 11.4567 6.25244C11.4567 6.72855 11.3789 7.18883 11.2233 7.63328C11.1153 7.94206 10.9697 8.23743 10.7865 8.51939C10.6473 8.73366 10.6609 9.01975 10.8422 9.19972L14.5671 12.8964C14.7636 13.0914 14.7642 13.4091 14.5684 13.6048L14.5436 13.6297ZM7.20667 9.51661C8.10945 9.51661 8.87681 9.19717 9.50876 8.55828C10.1407 7.91939 10.4567 7.14994 10.4567 6.24994C10.4567 5.34994 10.1407 4.5805 9.50876 3.94161C8.87681 3.30272 8.10945 2.98328 7.20667 2.98328C6.29464 2.98328 5.51941 3.30272 4.88097 3.94161C4.24255 4.5805 3.92334 5.34994 3.92334 6.24994C3.92334 7.14994 4.24255 7.91939 4.88097 8.55828C5.51941 9.19717 6.29464 9.51661 7.20667 9.51661Z" />
</symbol>

</defs>
</svg>