<?xml version="1.0" encoding="UTF-8"?>
<svg xmlns="http://www.w3.org/2000/svg" xmlns:xlink="http://www.w3.org/1999/xlink" width="0" height="0">
<defs>


<symbol id="delete" viewBox="0 0 512 512"  stroke="none" stroke-width="2" >
  <defs>
    <mask id="mask-inverted-cross">
        <rect width="512" height="512" fill="white" />
        <rect x="227.863" y="113.103"
            transform="matrix(0.7071 -0.7071 0.7071 0.7071 -106.0971 255.9227)"
            width="56.028" height="285.857" fill="black"/>
      <rect x="112.943" y="227.962"
            transform="matrix(0.7071 -0.7071 0.7071 0.7071 -106.0594 255.9024)"
            width="285.857" height="56.028" fill="black"/>
    </mask>
  </defs>

  <circle cx="256" cy="256" r="256"
          fill="var(--delete-icon-bg-color)"
          mask="url(#mask-inverted-cross)" />
 <path style="fill:#CCCCCC; "  d="M255.832,32.021c123.697,0.096,223.907,100.45,223.811,224.147s-100.45,223.907-224.147,223.811
	C131.863,479.883,31.685,379.633,31.685,256C31.869,132.311,132.143,32.117,255.832,32.021 M255.832,0
	C114.443,0.096-0.096,114.779,0,256.168S114.779,512.096,256.168,512C397.485,511.904,512,397.317,512,256
	C511.952,114.571,397.261-0.048,255.832,0z"/>
<g>
	
		<rect x="227.863" y="113.103" transform="matrix(0.7071 -0.7071 0.7071 0.7071 -106.0971 255.9227)" fill="var(--delete-icon-color)" width="56.028" height="285.857"/>
	
		<rect x="112.943" y="227.962" transform="matrix(0.7071 -0.7071 0.7071 0.7071 -106.0594 255.9024)" fill="var(--delete-icon-color)" width="285.857" height="56.028"/>
</g>
</symbol>


  <symbol fill="#000000" id="update" xmlns="http://www.w3.org/2000/svg" viewBox="0 0 494.936 494.936">
  <defs>
    <mask id="exclude-pen-shape">
      <rect x="0" y="80" width="380" height="380" fill="white" rx="50" />
      <path fill="black" d="M483.876,20.791c-14.72-14.72-38.669-14.714-53.377,0L221.352,229.944c-0.28,0.28-3.434,3.559-4.251,5.396l-28.963,65.069
        c-2.057,4.619-1.056,10.027,2.521,13.6c2.337,2.336,5.461,3.576,8.639,3.576c1.675,0,3.362-0.346,4.96-1.057l65.07-28.963
        c1.83-0.815,5.114-3.97,5.396-4.25L483.876,74.169c7.131-7.131,11.06-16.61,11.06-26.692
        C494.936,37.396,491.007,27.915,483.876,20.791z M466.61,56.897L257.457,266.05c-0.035,0.036-0.055,0.078-0.089,0.107
        l-33.989,15.131L238.51,247.3c0.03-0.036,0.071-0.055,0.107-0.09L447.765,38.058c5.038-5.039,13.819-5.033,18.846,0.005
        c2.518,2.51,3.905,5.855,3.905,9.414C470.516,51.036,469.127,54.38,466.61,56.897z"
         />
    </mask>
 </defs>
 
  <rect x="0" y="80" width="380" height="380" fill="var(--update-icon-bg-color)" rx="50" ry="50" mask="url(#exclude-pen-shape)" />

  <g >
    <path d="M389.844,182.85c-6.743,0-12.21,5.467-12.21,12.21v222.968c0,23.562-19.174,42.735-42.736,42.735H67.157
        c-23.562,0-42.736-19.174-42.736-42.735V150.285c0-23.562,19.174-42.735,42.736-42.735h267.741c6.743,0,12.21-5.467,12.21-12.21
        s-5.467-12.21-12.21-12.21H67.157C30.126,83.13,0,113.255,0,150.285v267.743c0,37.029,30.126,67.155,67.157,67.155h267.741
        c37.03,0,67.156-30.126,67.156-67.155V195.061C402.054,188.318,396.587,182.85,389.844,182.85z"/>
    
    <path fill="var(--update-icon-color)" d="M483.876,20.791c-14.72-14.72-38.669-14.714-53.377,0L221.352,229.944c-0.28,0.28-3.434,3.559-4.251,5.396l-28.963,65.069
        c-2.057,4.619-1.056,10.027,2.521,13.6c2.337,2.336,5.461,3.576,8.639,3.576c1.675,0,3.362-0.346,4.96-1.057l65.07-28.963
        c1.83-0.815,5.114-3.97,5.396-4.25L483.876,74.169c7.131-7.131,11.06-16.61,11.06-26.692
        C494.936,37.396,491.007,27.915,483.876,20.791z M466.61,56.897L257.457,266.05c-0.035,0.036-0.055,0.078-0.089,0.107
        l-33.989,15.131L238.51,247.3c0.03-0.036,0.071-0.055,0.107-0.09L447.765,38.058c5.038-5.039,13.819-5.033,18.846,0.005
        c2.518,2.51,3.905,5.855,3.905,9.414C470.516,51.036,469.127,54.38,466.61,56.897z"/>
  </g>
</symbol>


<symbol fill="#000000" id="loading" xmlns="http://www.w3.org/2000/svg" viewBox="0 0 200 200">
  <radialGradient id="a--inject-11" cx=".66" fx=".66" cy=".3125" fy=".3125" gradientTransform="scale(1.5)">
  <stop class="svg__stop-color" offset="0" stop-color="var(--loading-icon-color)"></stop>
  <stop class="svg__stop-color" offset=".3" stop-color="var(--loading-icon-color)" stop-opacity=".9"></stop>
  <stop class="svg__stop-color" offset=".6" stop-color="var(--loading-icon-color)" stop-opacity=".6"></stop>
  <stop class="svg__stop-color" offset=".8" stop-color="var(--loading-icon-color)" stop-opacity=".3"></stop>
  <stop class="svg__stop-color" offset="1" stop-color="var(--loading-icon-color)" stop-opacity="0"></stop>
  </radialGradient>
  <circle class="svg_strokeWidth" transform-origin="center" fill="none" stroke="url(#a--inject-11)" stroke-width="18" stroke-linecap="round" stroke-dasharray="200 1000" stroke-dashoffset="0" cx="100" cy="100" r="70">
  </circle>
  <circle class="svg__stroke svg_strokeWidth" transform-origin="center" fill="none" opacity=".2" stroke="var(--loading-icon-color)" stroke-width="18" stroke-linecap="round" cx="100" cy="100" r="70">
  </circle>
</symbol>


  <symbol id="cross" width="100%" height="100%" viewBox="0 0 24 24" fill="none" xmlns="http://www.w3.org/2000/svg">
  <line x1="18" y1="6" x2="6" y2="18" stroke="currentColor" stroke-width="2" stroke-linecap="round"/>
  <line x1="6" y1="6" x2="18" y2="18" stroke="currentColor" stroke-width="2" stroke-linecap="round"/>
</symbol>

<symbol id="refresh" width="100%" height="100%" viewBox="0 0 50 50" xmlns="http://www.w3.org/2000/svg">
<path d="M25 38c-7.2 0-13-5.8-13-13 0-3.2 1.2-6.2 3.3-8.6l1.5 1.3C15 19.7 14 22.3 14 25c0 6.1 4.9 11 11 11 1.6 0 3.1-.3 4.6-1l.8 1.8c-1.7.8-3.5 1.2-5.4 1.2z"/>
<path d="M34.7 33.7l-1.5-1.3c1.8-2 2.8-4.6 2.8-7.3 0-6.1-4.9-11-11-11-1.6 0-3.1.3-4.6 1l-.8-1.8c1.7-.8 3.5-1.2 5.4-1.2 7.2 0 13 5.8 13 13 0 3.1-1.2 6.2-3.3 8.6z"/>
<path d="M18 24h-2v-6h-6v-2h8z"/>
<path d="M40 34h-8v-8h2v6h6z"/>
</symbol>




</defs>
</svg>