<?xml version="1.0" encoding="UTF-8"?>
<svg xmlns="http://www.w3.org/2000/svg" xmlns:xlink="http://www.w3.org/1999/xlink" width="0" height="0">
<defs>


<symbol viewBox="0 0 512 512"  stroke="none" stroke-width="2"  id="delete">
 <path style="fill:#CCCCCC;" d="M255.832,32.021c123.697,0.096,223.907,100.45,223.811,224.147s-100.45,223.907-224.147,223.811
	C131.863,479.883,31.685,379.633,31.685,256C31.869,132.311,132.143,32.117,255.832,32.021 M255.832,0
	C114.443,0.096-0.096,114.779,0,256.168S114.779,512.096,256.168,512C397.485,511.904,512,397.317,512,256
	C511.952,114.571,397.261-0.048,255.832,0z"/>
<g>
	
		<rect x="227.863" y="113.103" transform="matrix(0.7071 -0.7071 0.7071 0.7071 -106.0971 255.9227)" style="fill:#E21B1B;" width="56.028" height="285.857"/>
	
		<rect x="112.943" y="227.962" transform="matrix(0.7071 -0.7071 0.7071 0.7071 -106.0594 255.9024)" style="fill:#E21B1B;" width="285.857" height="56.028"/>
</g>
</symbol>
<symbol fill="#000000" id="update" xmlns="http://www.w3.org/2000/svg" xmlns:xlink="http://www.w3.org/1999/xlink" 
	viewBox="0 0 494.936 494.936"
	 xml:space="preserve">
<g>
	<g>
		<path d="M389.844,182.85c-6.743,0-12.21,5.467-12.21,12.21v222.968c0,23.562-19.174,42.735-42.736,42.735H67.157
			c-23.562,0-42.736-19.174-42.736-42.735V150.285c0-23.562,19.174-42.735,42.736-42.735h267.741c6.743,0,12.21-5.467,12.21-12.21
			s-5.467-12.21-12.21-12.21H67.157C30.126,83.13,0,113.255,0,150.285v267.743c0,37.029,30.126,67.155,67.157,67.155h267.741
			c37.03,0,67.156-30.126,67.156-67.155V195.061C402.054,188.318,396.587,182.85,389.844,182.85z"/>
		<path d="M483.876,20.791c-14.72-14.72-38.669-14.714-53.377,0L221.352,229.944c-0.28,0.28-3.434,3.559-4.251,5.396l-28.963,65.069
			c-2.057,4.619-1.056,10.027,2.521,13.6c2.337,2.336,5.461,3.576,8.639,3.576c1.675,0,3.362-0.346,4.96-1.057l65.07-28.963
			c1.83-0.815,5.114-3.97,5.396-4.25L483.876,74.169c7.131-7.131,11.06-16.61,11.06-26.692
			C494.936,37.396,491.007,27.915,483.876,20.791z M466.61,56.897L257.457,266.05c-0.035,0.036-0.055,0.078-0.089,0.107
			l-33.989,15.131L238.51,247.3c0.03-0.036,0.071-0.055,0.107-0.09L447.765,38.058c5.038-5.039,13.819-5.033,18.846,0.005
			c2.518,2.51,3.905,5.855,3.905,9.414C470.516,51.036,469.127,54.38,466.61,56.897z"/>
	</g>
</g>
</symbol>



</defs>
</svg>